<?xml version="1.0" encoding="UTF-8" standalone="no"?>
<!DOCTYPE svg PUBLIC "-//W3C//DTD SVG 1.1//EN" "http://www.w3.org/Graphics/SVG/1.1/DTD/svg11.dtd">
<svg width="100%" height="100%" viewBox="0 0 847 847" version="1.1" xmlns="http://www.w3.org/2000/svg" xmlns:xlink="http://www.w3.org/1999/xlink" xml:space="preserve" xmlns:serif="http://www.serif.com/" style="fill-rule:evenodd;clip-rule:evenodd;stroke-linecap:round;stroke-linejoin:round;stroke-miterlimit:1.5;">
    <g transform="matrix(1,0,0,1,-0.812033,-1.34368)">
        <g transform="matrix(1,0,0,1,2561.71,210.241)">
            <g id="_2" serif:id="2" transform="matrix(1,0,0,1,-2630.12,-559.407)">
                <g transform="matrix(7.90479e-17,1.29095,-1.29095,7.90479e-17,1448.92,152.957)">
                    <circle cx="480.875" cy="740.901" r="327.847" style="fill:rgb(0,36,46);"/>
                </g>
                <g transform="matrix(1,0,0,1,-3.43554,6.56446)">
                    <g>
                        <g transform="matrix(1.20992,0,0,1.20992,-53.0015,-112.979)">
                            <path d="M583.253,963.663C666.567,917.821 723.076,829.182 723.076,727.449C723.076,578.754 602.354,458.032 453.659,458.032C304.963,458.032 184.242,578.754 184.242,727.449C184.242,876.144 304.963,996.866 453.659,996.866C455.459,996.866 457.255,996.848 459.047,996.813L459.047,1011.69C457.255,1011.73 455.459,1011.74 453.659,1011.74C296.753,1011.74 169.365,884.355 169.365,727.449C169.365,570.543 296.753,443.155 453.659,443.155C610.565,443.155 737.953,570.543 737.953,727.449C737.953,836.383 676.551,931.09 586.5,978.817C582.33,981.178 577.531,977.295 576.999,974.296C575.913,968.183 579.791,965.568 583.253,963.663Z" style="fill:rgb(121,191,68);"/>
                        </g>
                        <path d="M493.388,1099.03L493.388,941.256" style="fill:none;stroke:rgb(121,191,68);stroke-width:18px;"/>
                        <g transform="matrix(1.11127,0,0,1.11127,326.694,614.739)">
                            <path d="M9.38,99.663L9,75.946L9.786,26.881C9.832,23.985 11.327,21.304 13.766,19.743C16.206,18.181 19.266,17.946 21.915,19.117C54.134,33.761 140.568,78.554 140.568,137.892L140.613,137.892L140.613,209.386C138.036,207.643 135.233,205.895 132.228,204.121C100.893,185.626 45.43,163.233 9.38,99.663ZM140.613,230.089L140.613,248.75C140.613,251.665 139.143,254.384 136.703,255.98C134.264,257.575 131.184,257.833 128.513,256.665C96.931,242.434 14.127,199.427 10.037,137.892L9.992,137.892L9.868,130.152C40.517,171.734 78.858,193.13 107.735,208.962C119.209,215.253 129.092,220.573 136.078,226.08C137.79,227.43 139.33,228.745 140.613,230.089Z" style="fill:rgb(121,191,68);"/>
                        </g>
                        <g transform="matrix(-1.11127,0,0,1.11127,661.827,546.483)">
                            <path d="M9.38,99.663L9,75.946L9.786,26.881C9.832,23.985 11.327,21.304 13.766,19.743C16.206,18.181 19.266,17.946 21.915,19.117C54.134,33.761 140.568,78.554 140.568,137.892L140.613,137.892L140.613,209.386C138.036,207.643 135.233,205.895 132.228,204.121C100.893,185.626 45.43,163.233 9.38,99.663ZM140.613,230.089L140.613,248.75C140.613,251.665 139.143,254.384 136.703,255.98C134.264,257.575 131.184,257.833 128.513,256.665C96.931,242.434 14.127,199.427 10.037,137.892L9.992,137.892L9.868,130.152C40.517,171.734 78.858,193.13 107.735,208.962C119.209,215.253 129.092,220.573 136.078,226.08C137.79,227.43 139.33,228.745 140.613,230.089Z" style="fill:rgb(121,191,68);"/>
                        </g>
                    </g>
                </g>
            </g>
        </g>
    </g>
</svg>
